# Blender 3.5.1
# www.blender.org
mtllib disco.mtl
o Icosphere
v 0.000000 0.000000 0.000000
v 2.918167 2.054769 0.535086
v -1.114619 2.054768 0.865795
v -3.607047 2.054783 0.000000
v -1.114619 2.054768 -0.865795
v 2.918167 2.054769 -0.535086
v 1.114619 5.379534 0.865795
v -2.918167 5.379533 0.535086
v -2.918167 5.379533 -0.535086
v 1.114619 5.379534 -0.865795
v 3.607047 5.379519 0.000000
v 0.000000 7.434301 0.000000
v -0.655152 0.555140 0.508897
v 1.715244 0.555141 0.314513
v 1.060099 1.762905 0.823416
v 3.430497 1.762911 0.000000
v 1.715244 0.555141 -0.314513
v -2.120166 0.555151 0.000000
v -2.775334 1.762910 0.508899
v -0.655152 0.555140 -0.508897
v -2.775334 1.762910 -0.508899
v 1.060099 1.762905 -0.823416
v 3.835431 3.717151 0.314514
v 3.835431 3.717151 -0.314514
v 0.000000 3.717151 1.017805
v 2.370425 3.717151 0.823421
v -3.835431 3.717151 0.314514
v -2.370425 3.717151 0.823421
v -2.370425 3.717151 -0.823421
v -3.835431 3.717151 -0.314514
v 2.370425 3.717151 -0.823421
v 0.000000 3.717151 -1.017805
v 2.775334 5.671391 0.508899
v -1.060099 5.671397 0.823416
v -3.430497 5.671391 0.000000
v -1.060099 5.671397 -0.823416
v 2.775334 5.671391 -0.508899
v 0.655152 6.879161 0.508897
v 2.120166 6.879151 0.000000
v -1.715244 6.879160 0.314513
v -1.715244 6.879160 -0.314513
v 0.655152 6.879161 -0.508897
vn 0.0633 -0.6328 0.7717
vn 0.4794 -0.4915 0.7271
vn -0.2047 -0.7816 0.5892
vn -0.2047 -0.7816 -0.5892
vn 0.0633 -0.6328 -0.7717
vn 0.6282 -0.2488 0.7372
vn 0.0066 -0.0954 0.9954
vn -0.5651 -0.2277 0.7930
vn -0.1888 -0.1178 -0.9749
vn 0.1698 -0.1138 -0.9789
vn 0.3276 -0.0556 0.9432
vn -0.0817 -0.0363 0.9960
vn -0.9907 -0.1361 -0.0000
vn -0.0817 -0.0363 -0.9960
vn 0.3276 -0.0556 -0.9432
vn 0.1559 0.2736 0.9491
vn -0.1912 0.2912 0.9373
vn -0.4794 0.4915 -0.7271
vn 0.0126 0.2352 -0.9719
vn 0.5663 0.5614 -0.6034
vn 0.2047 0.7816 -0.5892
vn 0.2843 0.4991 -0.8185
vn 0.1559 0.2736 -0.9491
vn -0.0633 0.6328 -0.7717
vn -0.0765 0.3516 -0.9330
vn -0.1912 0.2912 -0.9373
vn -0.3079 0.9514 -0.0000
vn -0.5757 0.8176 -0.0000
vn -0.4794 0.4915 0.7271
vn -0.0633 0.6328 0.7717
vn -0.0765 0.3516 0.9330
vn 0.0126 0.2352 0.9719
vn 0.2047 0.7816 0.5892
vn 0.2843 0.4991 0.8185
vn 0.5663 0.5614 0.6034
vn 0.5651 0.2277 -0.7930
vn 0.3270 0.0837 -0.9413
vn 0.1888 0.1178 -0.9749
vn -0.0066 0.0954 -0.9954
vn -0.0816 0.0547 -0.9952
vn -0.1698 0.1138 -0.9789
vn -0.6282 0.2488 -0.7372
vn -0.9792 0.2029 -0.0000
vn -0.6282 0.2488 0.7372
vn -0.1698 0.1138 0.9789
vn -0.0816 0.0547 0.9952
vn -0.0066 0.0954 0.9954
vn 0.1888 0.1178 0.9749
vn 0.3270 0.0837 0.9413
vn 0.5651 0.2277 0.7930
vn 0.0817 0.0363 -0.9960
vn 0.0816 -0.0547 -0.9952
vn 0.0066 -0.0954 -0.9954
vn -0.3276 0.0556 -0.9432
vn -0.3270 -0.0837 -0.9413
vn -0.5651 -0.2277 -0.7930
vn -0.3276 0.0556 0.9432
vn -0.3270 -0.0837 0.9413
vn -0.1888 -0.1178 0.9749
vn 0.0817 0.0363 0.9960
vn 0.0816 -0.0547 0.9952
vn 0.1698 -0.1138 0.9789
vn 0.9907 0.1361 -0.0000
vn 0.9792 -0.2029 -0.0000
vn 0.6282 -0.2488 -0.7372
vn 0.1912 -0.2912 -0.9373
vn 0.0765 -0.3516 -0.9330
vn -0.0126 -0.2352 -0.9719
vn -0.1559 -0.2736 -0.9491
vn -0.2843 -0.4991 -0.8185
vn -0.5663 -0.5614 -0.6034
vn -0.5663 -0.5614 0.6034
vn -0.2843 -0.4991 0.8185
vn -0.1559 -0.2736 0.9491
vn 0.4794 -0.4915 -0.7271
vn 0.5757 -0.8176 -0.0000
vn 0.3079 -0.9514 -0.0000
vn -0.0126 -0.2352 0.9719
vn 0.0765 -0.3516 0.9330
vn 0.1912 -0.2912 0.9373
vt 0.181819 0.000000
vt 0.909091 0.000000
vt 0.727273 0.000000
vt 0.545455 0.000000
vt 0.363637 0.000000
vt 0.272728 0.157461
vt 1.000000 0.157461
vt 0.090910 0.157461
vt 0.818182 0.157461
vt 0.636364 0.157461
vt 0.454546 0.157461
vt 0.181819 0.314921
vt 0.000000 0.314921
vt 0.909091 0.314921
vt 0.727273 0.314921
vt 0.545455 0.314921
vt 0.363637 0.314921
vt 0.454546 0.472382
vt 0.636364 0.472382
vt 0.818182 0.472382
vt 0.090910 0.472382
vt 0.272728 0.472382
vt 0.954545 0.078731
vt 0.136365 0.078731
vt 0.318182 0.078731
vt 0.227273 0.078731
vt 0.181819 0.157461
vt 0.363637 0.157461
vt 0.500000 0.078731
vt 0.409092 0.078731
vt 0.772727 0.078731
vt 0.863636 0.078731
vt 0.909091 0.157461
vt 0.590909 0.078731
vt 0.681818 0.078731
vt 0.727273 0.157461
vt 0.545455 0.157461
vt 0.318182 0.236191
vt 0.409092 0.236191
vt 0.136365 0.236191
vt 0.227273 0.236191
vt 0.863636 0.236191
vt 0.045455 0.236191
vt 0.954545 0.236191
vt 0.681818 0.236191
vt 0.772727 0.236191
vt 0.500000 0.236191
vt 0.590909 0.236191
vt 0.272728 0.314921
vt 0.090910 0.314921
vt 0.818182 0.314921
vt 0.636364 0.314921
vt 0.454546 0.314921
vt 0.136365 0.393651
vt 0.227273 0.393651
vt 0.409092 0.393651
vt 0.318182 0.393651
vt 0.863636 0.393651
vt 0.045455 0.393651
vt 0.681818 0.393651
vt 0.772727 0.393651
vt 0.500000 0.393651
vt 0.590909 0.393651
s 0
f 1/1/1 14/26/1 13/24/1
f 2/6/2 14/25/2 16/28/2
f 1/2/3 13/23/3 18/32/3
f 1/3/4 18/31/4 20/35/4
f 1/4/5 20/34/5 17/29/5
f 2/6/6 16/28/6 23/38/6
f 3/8/7 15/27/7 25/40/7
f 4/9/8 19/33/8 27/42/8
f 5/10/9 21/36/9 29/45/9
f 6/11/10 22/37/10 31/47/10
f 2/6/11 23/38/11 26/41/11
f 3/8/12 25/40/12 28/43/12
f 4/9/13 27/42/13 30/46/13
f 5/10/14 29/45/14 32/48/14
f 6/11/15 31/47/15 24/39/15
f 7/12/16 33/49/16 38/55/16
f 8/13/17 34/50/17 40/59/17
f 9/15/18 35/51/18 41/61/18
f 10/16/19 36/52/19 42/63/19
f 11/17/20 37/53/20 39/56/20
f 39/56/21 42/62/21 12/18/21
f 39/56/22 37/53/22 42/62/22
f 37/53/23 10/16/23 42/62/23
f 42/63/24 41/60/24 12/19/24
f 42/63/25 36/52/25 41/60/25
f 36/52/26 9/15/26 41/60/26
f 41/61/27 40/58/27 12/20/27
f 41/61/28 35/51/28 40/58/28
f 35/51/29 8/14/29 40/58/29
f 40/59/30 38/54/30 12/21/30
f 40/59/31 34/50/31 38/54/31
f 34/50/32 7/12/32 38/54/32
f 38/55/33 39/57/33 12/22/33
f 38/55/34 33/49/34 39/57/34
f 33/49/35 11/17/35 39/57/35
f 24/39/36 37/53/36 11/17/36
f 24/39/37 31/47/37 37/53/37
f 31/47/38 10/16/38 37/53/38
f 32/48/39 36/52/39 10/16/39
f 32/48/40 29/45/40 36/52/40
f 29/45/41 9/15/41 36/52/41
f 30/46/42 35/51/42 9/15/42
f 30/46/43 27/42/43 35/51/43
f 27/42/44 8/14/44 35/51/44
f 28/43/45 34/50/45 8/13/45
f 28/43/46 25/40/46 34/50/46
f 25/40/47 7/12/47 34/50/47
f 26/41/48 33/49/48 7/12/48
f 26/41/49 23/38/49 33/49/49
f 23/38/50 11/17/50 33/49/50
f 31/47/51 32/48/51 10/16/51
f 31/47/52 22/37/52 32/48/52
f 22/37/53 5/10/53 32/48/53
f 29/45/54 30/46/54 9/15/54
f 29/45/55 21/36/55 30/46/55
f 21/36/56 4/9/56 30/46/56
f 27/42/57 28/44/57 8/14/57
f 27/42/58 19/33/58 28/44/58
f 19/33/59 3/7/59 28/44/59
f 25/40/60 26/41/60 7/12/60
f 25/40/61 15/27/61 26/41/61
f 15/27/62 2/6/62 26/41/62
f 23/38/63 24/39/63 11/17/63
f 23/38/64 16/28/64 24/39/64
f 16/28/65 6/11/65 24/39/65
f 17/29/66 22/37/66 6/11/66
f 17/29/67 20/34/67 22/37/67
f 20/34/68 5/10/68 22/37/68
f 20/35/69 21/36/69 5/10/69
f 20/35/70 18/31/70 21/36/70
f 18/31/71 4/9/71 21/36/71
f 18/32/72 19/33/72 4/9/72
f 18/32/73 13/23/73 19/33/73
f 13/23/74 3/7/74 19/33/74
f 16/28/75 17/30/75 6/11/75
f 16/28/76 14/25/76 17/30/76
f 14/25/77 1/5/77 17/30/77
f 13/24/78 15/27/78 3/8/78
f 13/24/79 14/26/79 15/27/79
f 14/26/80 2/6/80 15/27/80
